<?xml version="1.0" encoding="UTF-8"?><svg xmlns="http://www.w3.org/2000/svg" xmlns:xlink="http://www.w3.org/1999/xlink" width="1580.0" height="2452.0" viewBox="-550.0 -1130.0 1580.0 2452.0" version="1.1">
<rect x="-550.0" y="-1130.0" width="1580.0" height="2452.0" fill="rgb(11,19,30)"/>
<g id="g11107504">
<polygon id="s206038825" points="-140.0,-480.0 200.0,-480.0 200.0,-400.0 -140.0,-400.0 " fill="rgb(33,33,33)"/>
<g id="t11107504">
<text xml:space="preserve" x="-89.000015" y="-427.4375" font-family="Sans,Helvetica" fill="rgb(229,255,255)" font-size="32">TABLE: user_pass</text>
</g>
</g>
<g id="g96606894">
<path id="s140152911" d=" M-99.31,-380.0  L-99.31,-351.34 -120.0,-351.34 -120.0,-340.76 -99.31,-340.76 -99.31,-322.62 -120.0,-322.62 -120.0,-312.04 -99.31,-312.04 -99.31,-293.95 -120.0,-293.95 -120.0,-283.38 -99.31,-283.38 -99.31,-265.29 -120.0,-265.29 -120.0,-254.71 -99.31,-254.71 -99.31,-236.62 -120.0,-236.62 -120.0,-226.05 -99.31,-226.05 -99.31,-207.96 -120.0,-207.96 -120.0,-197.38 -99.31,-197.38 -99.31,-179.24 -120.0,-179.24 -120.0,-168.66 -99.31,-168.66 -99.31,-140.0 140.0,-140.0 140.0,-380.0 ZM126.95,-150.58 L-86.26,-150.58 -86.26,-168.66 -65.57,-168.66 -65.57,-179.24 -86.26,-179.24 -86.26,-197.38 -65.57,-197.38 -65.57,-207.96 -86.26,-207.96 -86.26,-226.05 -65.57,-226.05 -65.57,-236.62 -86.26,-236.62 -86.26,-254.71 -65.57,-254.71 -65.57,-265.29 -86.26,-265.29 -86.26,-283.38 -65.57,-283.38 -65.57,-293.95 -86.26,-293.95 -86.26,-312.04 -65.57,-312.04 -65.57,-322.62 -86.26,-322.62 -86.26,-340.76 -65.57,-340.76 -65.57,-351.34 -86.26,-351.34 -86.26,-369.42 126.95,-369.42  z" fill="rgb(129,199,132)" stroke-width="0.8" stroke="rgb(129,199,132)"/>
<polygon id="s44151772" points="-39.34,-316.59 92.49,-316.59 92.49,-306.01 -39.34,-306.01 " fill="rgb(129,199,132)" stroke-width="0.8" stroke="rgb(129,199,132)"/>
<polygon id="s198102245" points="-39.34,-247.15 26.58,-247.15 26.58,-236.57 -39.34,-236.57 " fill="rgb(129,199,132)" stroke-width="0.8" stroke="rgb(129,199,132)"/>
<polygon id="s127480762" points="-39.34,-351.34 92.49,-351.34 92.49,-340.76 -39.34,-340.76 " fill="rgb(129,199,132)" stroke-width="0.8" stroke="rgb(129,199,132)"/>
<polygon id="s98165355" points="-39.34,-281.84 92.49,-281.84 92.49,-271.26 -39.34,-271.26 " fill="rgb(129,199,132)" stroke-width="0.8" stroke="rgb(129,199,132)"/>
<g id="t96606894">
<text xml:space="preserve" x="-105.49998" y="-116.79689" font-family="Sans,Helvetica" fill="rgb(229,255,255)" font-size="22">id, username, password</text>
</g>
</g>
<g id="g176435656">
<path id="s170152545" d=" M-440.9,-80.0  L-440.9,-48.95 -460.0,-48.95 -460.0,-37.49 -440.9,-37.49 -440.9,-17.84 -460.0,-17.84 -460.0,-6.38 -440.9,-6.38 -440.9,13.22 -460.0,13.22 -460.0,24.68 -440.9,24.68 -440.9,44.27 -460.0,44.27 -460.0,55.73 -440.9,55.73 -440.9,75.32 -460.0,75.32 -460.0,86.78 -440.9,86.78 -440.9,106.38 -460.0,106.38 -460.0,117.84 -440.9,117.84 -440.9,137.49 -460.0,137.49 -460.0,148.95 -440.9,148.95 -440.9,180.0 -220.0,180.0 -220.0,-80.0 ZM-232.05,168.54 L-428.85,168.54 -428.85,148.95 -409.76,148.95 -409.76,137.49 -428.85,137.49 -428.85,117.84 -409.76,117.84 -409.76,106.38 -428.85,106.38 -428.85,86.78 -409.76,86.78 -409.76,75.32 -428.85,75.32 -428.85,55.73 -409.76,55.73 -409.76,44.27 -428.85,44.27 -428.85,24.68 -409.76,24.68 -409.76,13.22 -428.85,13.22 -428.85,-6.38 -409.76,-6.38 -409.76,-17.84 -428.85,-17.84 -428.85,-37.49 -409.76,-37.49 -409.76,-48.95 -428.85,-48.95 -428.85,-68.54 -232.05,-68.54  z" fill="rgb(129,199,132)" stroke-width="0.8" stroke="rgb(129,199,132)"/>
<polygon id="s177656198" points="-385.54,-11.3 -263.86,-11.3 -263.85,0.15 -385.54,0.15 " fill="rgb(129,199,132)" stroke-width="0.8" stroke="rgb(129,199,132)"/>
<polygon id="s162675271" points="-385.54,63.92 -324.7,63.92 -324.7,75.38 -385.54,75.38 " fill="rgb(129,199,132)" stroke-width="0.8" stroke="rgb(129,199,132)"/>
<polygon id="s143565428" points="-385.54,-48.95 -263.86,-48.95 -263.86,-37.49 -385.54,-37.49 " fill="rgb(129,199,132)" stroke-width="0.8" stroke="rgb(129,199,132)"/>
<polygon id="s66237341" points="-385.54,26.34 -263.86,26.34 -263.86,37.8 -385.54,37.8 " fill="rgb(129,199,132)" stroke-width="0.8" stroke="rgb(129,199,132)"/>
<g id="t176435656">
<text xml:space="preserve" x="-434.99988" y="201.09375" font-family="Sans,Helvetica" fill="rgb(229,255,255)" font-size="20">user_id, recovery_key</text>
</g>
</g>
<g id="g159285266">
<polygon id="s97399779" points="-480.0,-140.0 -240.0,-140.0 -240.0,-80.0 -480.0,-80.0 " fill="rgb(33,33,33)"/>
<g id="t159285266">
<text xml:space="preserve" x="-471.0" y="-97.43756" font-family="Sans,Helvetica" fill="rgb(229,255,255)" font-size="32">TABLE: user_key</text>
</g>
</g>
<g id="g19755488">
<path id="s206302361" d=" M197.51,40.0  L197.51,68.66 180.0,68.66 180.0,79.24 197.51,79.24 197.51,97.38 180.0,97.38 180.0,107.96 197.51,107.96 197.51,126.05 180.0,126.05 180.0,136.62 197.51,136.62 197.51,154.71 180.0,154.71 180.0,165.29 197.51,165.29 197.51,183.38 180.0,183.38 180.0,193.95 197.51,193.95 197.51,212.04 180.0,212.04 180.0,222.62 197.51,222.62 197.51,240.76 180.0,240.76 180.0,251.34 197.51,251.34 197.51,280.0 400.0,280.0 400.0,40.0 ZM388.96,269.42 L208.55,269.42 208.55,251.34 226.06,251.34 226.06,240.76 208.55,240.76 208.55,222.62 226.06,222.62 226.06,212.04 208.55,212.04 208.55,193.95 226.06,193.95 226.06,183.38 208.55,183.38 208.55,165.29 226.06,165.29 226.06,154.71 208.55,154.71 208.55,136.62 226.06,136.62 226.06,126.05 208.55,126.05 208.55,107.96 226.06,107.96 226.06,97.38 208.55,97.38 208.55,79.24 226.06,79.24 226.06,68.66 208.55,68.66 208.55,50.58 388.96,50.58  z" fill="rgb(129,199,132)" stroke-width="0.8" stroke="rgb(129,199,132)"/>
<polygon id="s96504670" points="248.25,103.41 359.8,103.41 359.8,113.99 248.25,113.99 " fill="rgb(129,199,132)" stroke-width="0.8" stroke="rgb(129,199,132)"/>
<polygon id="s103164735" points="248.25,172.85 304.03,172.85 304.03,183.43 248.25,183.43 " fill="rgb(129,199,132)" stroke-width="0.8" stroke="rgb(129,199,132)"/>
<polygon id="s19385356" points="248.25,68.66 359.8,68.66 359.8,79.24 248.25,79.24 " fill="rgb(129,199,132)" stroke-width="0.8" stroke="rgb(129,199,132)"/>
<polygon id="s191215957" points="248.25,138.16 359.8,138.16 359.8,148.74 248.25,148.74 " fill="rgb(129,199,132)" stroke-width="0.8" stroke="rgb(129,199,132)"/>
<g id="t19755488">
<text xml:space="preserve" x="208.50018" y="301.09375" font-family="Sans,Helvetica" fill="rgb(229,255,255)" font-size="20">user_id, session_id.</text>
<text xml:space="preserve" x="290.00018" y="327.57812" font-family="Sans,Helvetica" fill="rgb(229,255,255)" font-size="20"/>
<text xml:space="preserve" x="201.00018" y="354.0625" font-family="Sans,Helvetica" fill="rgb(229,255,255)" font-size="20">if user success login</text>
<text xml:space="preserve" x="206.00018" y="380.54688" font-family="Sans,Helvetica" fill="rgb(229,255,255)" font-size="20">create a session_id,</text>
<text xml:space="preserve" x="185.50018" y="407.03125" font-family="Sans,Helvetica" fill="rgb(229,255,255)" font-size="20">when user logout, delete</text>
<text xml:space="preserve" x="246.50018" y="433.51562" font-family="Sans,Helvetica" fill="rgb(229,255,255)" font-size="20">session_id</text>
</g>
</g>
<g id="g173312014">
<polygon id="s4612655" points="180.0,-40.0 380.0,-40.0 380.0,20.0 180.0,20.0 " fill="rgb(33,33,33)"/>
<g id="t173312014">
<text xml:space="preserve" x="192.49997" y="-0.578125" font-family="Sans,Helvetica" fill="rgb(229,255,255)" font-size="24">TABLE: session_id</text>
</g>
</g>
<g id="g255610940">
<path id="s126394821" d=" M723.87,60.0  L723.87,83.89 700.0,83.89 700.0,92.7 723.87,92.7 723.87,107.82 700.0,107.82 700.0,116.63 723.87,116.63 723.87,131.71 700.0,131.71 700.0,140.52 723.87,140.52 723.87,155.59 700.0,155.59 700.0,164.41 723.87,164.41 723.87,179.48 700.0,179.48 700.0,188.29 723.87,188.29 723.87,203.37 700.0,203.37 700.0,212.18 723.87,212.18 723.87,227.3 700.0,227.3 700.0,236.11 723.87,236.11 723.87,260.0 1000.0,260.0 1000.0,60.0 ZM984.94,251.19 L738.93,251.19 738.93,236.11 762.8,236.11 762.8,227.3 738.93,227.3 738.93,212.18 762.8,212.18 762.8,203.37 738.93,203.37 738.93,188.29 762.8,188.29 762.8,179.48 738.93,179.48 738.93,164.41 762.8,164.41 762.8,155.59 738.93,155.59 738.93,140.52 762.8,140.52 762.8,131.71 738.93,131.71 738.93,116.63 762.8,116.63 762.8,107.82 738.93,107.82 738.93,92.7 762.8,92.7 762.8,83.89 738.93,83.89 738.93,68.81 984.94,68.81  z" fill="rgb(129,199,132)" stroke-width="0.8" stroke="rgb(129,199,132)"/>
<polygon id="s164960026" points="793.07,112.84 945.18,112.84 945.18,121.66 793.07,121.66 " fill="rgb(129,199,132)" stroke-width="0.8" stroke="rgb(129,199,132)"/>
<polygon id="s81850955" points="793.07,170.71 869.13,170.71 869.13,179.52 793.07,179.52 " fill="rgb(129,199,132)" stroke-width="0.8" stroke="rgb(129,199,132)"/>
<polygon id="s245117992" points="793.07,83.89 945.18,83.89 945.18,92.7 793.07,92.7 " fill="rgb(129,199,132)" stroke-width="0.8" stroke="rgb(129,199,132)"/>
<polygon id="s257332545" points="793.07,141.8 945.18,141.8 945.18,150.61 793.07,150.61 " fill="rgb(129,199,132)" stroke-width="0.8" stroke="rgb(129,199,132)"/>
<g id="t255610940">
<text xml:space="preserve" x="787.0002" y="281.09375" font-family="Sans,Helvetica" fill="rgb(229,255,255)" font-size="20">user_id, pas_id</text>
</g>
</g>
<g id="g178096870">
<polygon id="s155871271" points="740.0,-40.0 900.0,-40.0 900.0,20.0 740.0,20.0 " fill="rgb(33,33,33)"/>
<g id="t178096870">
<text xml:space="preserve" x="750.5" y="-0.578125" font-family="Sans,Helvetica" fill="rgb(229,255,255)" font-size="24">TABLE: bridge</text>
</g>
</g>
<g id="g93612756">
<path id="s213271677" d=" M-256.13,500.0  L-256.13,526.28 -280.0,526.28 -280.0,535.97 -256.13,535.97 -256.13,552.6 -280.0,552.6 -280.0,562.3 -256.13,562.3 -256.13,578.88 -280.0,578.88 -280.0,588.57 -256.13,588.57 -256.13,605.15 -280.0,605.15 -280.0,614.85 -256.13,614.85 -256.13,631.43 -280.0,631.43 -280.0,641.12 -256.13,641.12 -256.13,657.7 -280.0,657.7 -280.0,667.4 -256.13,667.4 -256.13,684.03 -280.0,684.03 -280.0,693.72 -256.13,693.72 -256.13,720.0 20.0,720.0 20.0,500.0 ZM4.94,710.3 L-241.07,710.3 -241.07,693.72 -217.2,693.72 -217.2,684.03 -241.07,684.03 -241.07,667.4 -217.2,667.4 -217.2,657.7 -241.07,657.7 -241.07,641.12 -217.2,641.12 -217.2,631.43 -241.07,631.43 -241.07,614.85 -217.2,614.85 -217.2,605.15 -241.07,605.15 -241.07,588.57 -217.2,588.57 -217.2,578.88 -241.07,578.88 -241.07,562.3 -217.2,562.3 -217.2,552.6 -241.07,552.6 -241.07,535.97 -217.2,535.97 -217.2,526.28 -241.07,526.28 -241.07,509.7 4.94,509.7  z" fill="rgb(129,199,132)" stroke-width="0.8" stroke="rgb(129,199,132)"/>
<polygon id="s136802162" points="-186.93,558.13 -34.82,558.13 -34.82,567.82 -186.93,567.82 " fill="rgb(129,199,132)" stroke-width="0.8" stroke="rgb(129,199,132)"/>
<polygon id="s15425475" points="-186.93,621.78 -110.87,621.78 -110.87,631.48 -186.93,631.48 " fill="rgb(129,199,132)" stroke-width="0.8" stroke="rgb(129,199,132)"/>
<polygon id="s255287360" points="-186.93,526.28 -34.82,526.28 -34.82,535.97 -186.93,535.97 " fill="rgb(129,199,132)" stroke-width="0.8" stroke="rgb(129,199,132)"/>
<polygon id="s191343481" points="-186.93,589.98 -34.82,589.98 -34.82,599.67 -186.93,599.67 " fill="rgb(129,199,132)" stroke-width="0.8" stroke="rgb(129,199,132)"/>
<g id="t93612756">
<text xml:space="preserve" x="-213.49913" y="741.09375" font-family="Sans,Helvetica" fill="rgb(229,255,255)" font-size="20">id, name, password</text>
</g>
</g>
<g id="g167317694">
<polygon id="s52049183" points="-280.0,400.0 20.0,400.0 20.0,460.0 -280.0,460.0 " fill="rgb(33,33,33)"/>
<g id="t167317694">
<text xml:space="preserve" x="-274.49994" y="442.5625" font-family="Sans,Helvetica" fill="rgb(229,255,255)" font-size="32">TABLE: password_list</text>
</g>
</g>
<g id="g55722092">
<path id="s154043957" d=" M-37.72,940.0  L-37.72,973.44 -60.0,973.44 -60.0,985.78 -37.72,985.78 -37.72,1006.95 -60.0,1006.95 -60.0,1019.29 -37.72,1019.29 -37.72,1040.39 -60.0,1040.39 -60.0,1052.73 -37.72,1052.73 -37.72,1073.83 -60.0,1073.83 -60.0,1086.17 -37.72,1086.17 -37.72,1107.27 -60.0,1107.27 -60.0,1119.61 -37.72,1119.61 -37.72,1140.71 -60.0,1140.71 -60.0,1153.05 -37.72,1153.05 -37.72,1174.22 -60.0,1174.22 -60.0,1186.56 -37.72,1186.56 -37.72,1220.0 220.0,1220.0 220.0,940.0 ZM205.94,1207.66 L-23.66,1207.66 -23.66,1186.56 -1.38,1186.56 -1.38,1174.22 -23.66,1174.22 -23.66,1153.05 -1.38,1153.05 -1.38,1140.71 -23.66,1140.71 -23.66,1119.61 -1.38,1119.61 -1.38,1107.27 -23.66,1107.27 -23.66,1086.17 -1.38,1086.17 -1.38,1073.83 -23.66,1073.83 -23.66,1052.73 -1.38,1052.73 -1.38,1040.39 -23.66,1040.39 -23.66,1019.29 -1.38,1019.29 -1.38,1006.95 -23.66,1006.95 -23.66,985.78 -1.38,985.78 -1.38,973.44 -23.66,973.44 -23.66,952.34 205.94,952.34  z" fill="rgb(129,199,132)" stroke-width="0.8" stroke="rgb(129,199,132)"/>
<polygon id="s129071818" points="26.87,1013.98 168.84,1013.98 168.84,1026.32 26.87,1026.32 " fill="rgb(129,199,132)" stroke-width="0.8" stroke="rgb(129,199,132)"/>
<polygon id="s204932155" points="26.87,1094.99 97.85,1094.99 97.85,1107.33 26.87,1107.33 " fill="rgb(129,199,132)" stroke-width="0.8" stroke="rgb(129,199,132)"/>
<polygon id="s123271000" points="26.87,973.44 168.84,973.44 168.84,985.78 26.87,985.78 " fill="rgb(129,199,132)" stroke-width="0.8" stroke="rgb(129,199,132)"/>
<polygon id="s38686897" points="26.87,1054.52 168.84,1054.52 168.84,1066.86 26.87,1066.86 " fill="rgb(129,199,132)" stroke-width="0.8" stroke="rgb(129,199,132)"/>
<g id="t55722092">
<text xml:space="preserve" x="-20.499878" y="1241.0938" font-family="Sans,Helvetica" fill="rgb(229,255,255)" font-size="20">id,pas_id, url, app_name</text>
</g>
</g>
<g id="g30701974">
<polygon id="s75999511" points="-20.0,860.0 140.0,860.0 140.0,920.0 -20.0,920.0 " fill="rgb(33,33,33)"/>
<g id="t30701974">
<text xml:space="preserve" x="-10.500038" y="902.5625" font-family="Sans,Helvetica" fill="rgb(229,255,255)" font-size="32">TABLE: link</text>
</g>
</g>
<g id="g34746628">
<path id="s163989229" d=" M-496.13,940.0  L-496.13,975.83 -520.0,975.83 -520.0,989.05 -496.13,989.05 -496.13,1011.73 -520.0,1011.73 -520.0,1024.95 -496.13,1024.95 -496.13,1047.56 -520.0,1047.56 -520.0,1060.78 -496.13,1060.78 -496.13,1083.39 -520.0,1083.39 -520.0,1096.61 -496.13,1096.61 -496.13,1119.22 -520.0,1119.22 -520.0,1132.44 -496.13,1132.44 -496.13,1155.05 -520.0,1155.05 -520.0,1168.27 -496.13,1168.27 -496.13,1190.95 -520.0,1190.95 -520.0,1204.17 -496.13,1204.17 -496.13,1240.0 -220.0,1240.0 -220.0,940.0 ZM-235.06,1226.78 L-481.07,1226.78 -481.07,1204.17 -457.2,1204.17 -457.2,1190.95 -481.07,1190.95 -481.07,1168.27 -457.2,1168.27 -457.2,1155.05 -481.07,1155.05 -481.07,1132.44 -457.2,1132.44 -457.2,1119.22 -481.07,1119.22 -481.07,1096.61 -457.2,1096.61 -457.2,1083.39 -481.07,1083.39 -481.07,1060.78 -457.2,1060.78 -457.2,1047.56 -481.07,1047.56 -481.07,1024.95 -457.2,1024.95 -457.2,1011.73 -481.07,1011.73 -481.07,989.05 -457.2,989.05 -457.2,975.83 -481.07,975.83 -481.07,953.22 -235.06,953.22  z" fill="rgb(129,199,132)" stroke-width="0.8" stroke="rgb(129,199,132)"/>
<polygon id="s190224674" points="-426.93,1019.26 -274.82,1019.26 -274.82,1032.49 -426.93,1032.49 " fill="rgb(129,199,132)" stroke-width="0.8" stroke="rgb(129,199,132)"/>
<polygon id="s148094899" points="-426.93,1106.06 -350.87,1106.06 -350.87,1119.29 -426.93,1119.29 " fill="rgb(129,199,132)" stroke-width="0.8" stroke="rgb(129,199,132)"/>
<polygon id="s235100528" points="-426.93,975.83 -274.82,975.83 -274.82,989.05 -426.93,989.05 " fill="rgb(129,199,132)" stroke-width="0.8" stroke="rgb(129,199,132)"/>
<polygon id="s156067049" points="-426.93,1062.7 -274.82,1062.7 -274.82,1075.92 -426.93,1075.92 " fill="rgb(129,199,132)" stroke-width="0.8" stroke="rgb(129,199,132)"/>
<g id="t34746628">
<text xml:space="preserve" x="-477.99988" y="1261.0938" font-family="Sans,Helvetica" fill="rgb(229,255,255)" font-size="20">id, pas_id, datetime(latest</text>
<text xml:space="preserve" x="-455.49988" y="1287.5781" font-family="Sans,Helvetica" fill="rgb(229,255,255)" font-size="20">update), description</text>
</g>
</g>
<g id="g266937710">
<polygon id="s12624911" points="-480.0,860.0 -200.0,860.0 -200.0,920.0 -480.0,920.0 " fill="rgb(33,33,33)"/>
<g id="t266937710">
<text xml:space="preserve" x="-465.5" y="902.5625" font-family="Sans,Helvetica" fill="rgb(229,255,255)" font-size="32">TABLE: description</text>
</g>
</g>
<g id="g110927004">
<path id="s84829861" d=" M10.0,-940.0  C-75.0,-940.0 -160.0,-929.69 -160.0,-910.73  L-160.0,-729.27  C-160.0,-710.05 -74.26,-700.0 10.0,-700.0  C94.26,-700.0 180.0,-710.05 180.0,-729.27  L180.0,-910.73  C180.0,-929.95 95.0,-940.0 10.0,-940.0 ZM10.0,-929.69 C99.68,-929.69 158.75,-918.26 158.75,-910.73  C158.75,-903.21 99.25,-891.72 10.0,-891.72  C-79.25,-891.72 -138.75,-903.16 -138.75,-910.73  C-138.75,-918.31 -79.67,-929.69 10.0,-929.69 ZM10.0,-710.31 C-79.67,-710.31 -138.75,-721.74 -138.75,-729.27  L-138.75,-774.86  C-108.04,-765.38 -48.65,-760.44 10.0,-760.44  C68.65,-760.44 128.47,-765.59 158.75,-774.86  L158.75,-729.27  C158.75,-721.74 99.68,-710.31 10.0,-710.31 ZM10.0,-770.74 C-79.67,-770.74 -138.75,-782.18 -138.75,-789.76  L-138.75,-835.46  C-108.04,-825.98 -48.65,-821.03 10.0,-821.03  C68.65,-821.03 128.47,-826.18 158.75,-835.46  L158.75,-789.86  C158.75,-782.18 99.67,-770.74 10.0,-770.74 ZM10.0,-831.23 C-87.96,-831.23 -138.75,-843.6 -138.75,-850.24  L-138.75,-895.79  C-108.04,-886.31 -48.65,-881.42 10.0,-881.42  C68.65,-881.42 128.47,-886.31 158.75,-895.79  L158.75,-850.24  C158.75,-843.6 107.96,-831.23 10.0,-831.23  z" fill="rgb(129,199,132)" stroke-width="0.8" stroke="rgb(129,199,132)"/>
<polygon id="s50735738" points="-111.12,-867.14 -85.94,-867.14 -85.94,-856.84 -111.12,-856.84 " fill="rgb(129,199,132)" stroke-width="0.8" stroke="rgb(129,199,132)"/>
<polygon id="s250442283" points="-111.12,-806.66 -85.94,-806.66 -85.94,-796.35 -111.12,-796.35 " fill="rgb(129,199,132)" stroke-width="0.8" stroke="rgb(129,199,132)"/>
<polygon id="s203744904" points="-111.12,-746.17 -85.94,-746.17 -85.94,-735.86 -111.12,-735.86 " fill="rgb(129,199,132)" stroke-width="0.8" stroke="rgb(129,199,132)"/>
<polygon id="s254003233" points="-73.72,-867.14 -29.31,-867.14 -29.31,-856.84 -73.72,-856.84 " fill="rgb(129,199,132)" stroke-width="0.8" stroke="rgb(129,199,132)"/>
<polygon id="s62682182" points="-73.72,-806.66 -29.31,-806.66 -29.31,-796.35 -73.72,-796.35 " fill="rgb(129,199,132)" stroke-width="0.8" stroke="rgb(129,199,132)"/>
<polygon id="s114230791" points="-73.72,-746.17 -29.31,-746.17 -29.31,-735.86 -73.72,-735.86 " fill="rgb(129,199,132)" stroke-width="0.8" stroke="rgb(129,199,132)"/>
<g id="t110927004">
<text xml:space="preserve" x="-59.000076" y="-653.5938" font-family="Sans,Helvetica" fill="rgb(229,255,255)" font-size="44">database.sqlite</text>
</g>
</g>
<g id="g174449460">
<polygon id="s114541917" points="-180.0,-1100.0 260.0,-1100.0 260.0,-980.0 -180.0,-980.0 " fill="rgb(33,33,33)"/>
<path id="s20680402" d="M -180.0,-979.99994 260.0,-979.99994 " fill="none" stroke-width="7.0" stroke="rgb(129,199,132)"/>
<g id="t174449460">
<text xml:space="preserve" x="-153.5" y="-1020.3711" font-family="Sans,Helvetica" fill="rgb(229,255,255)" font-size="50">DATABASE SCHEMA</text>
</g>
</g>
<g id="la72088483">
<path id="s72088483" d="M 139.9999,-260.0 280.0,-260.0 280.0,-40.0 " fill="none" stroke-width="5.0" stroke="rgb(129,199,132)"/>
<g id="t72088483">
<text xml:space="preserve" x="284.0" y="-227.7735" font-family="Sans,Helvetica" fill="rgb(229,255,255)" font-size="14"/>
</g>
</g>
<g id="la260856409">
<path id="s260856409" d="M -120.00011,-260.0 -340.0,-260.0 -340.0,-80.0 " fill="none" stroke-width="3.0" stroke="rgb(129,199,132)"/>
<g id="t260856409">
<text xml:space="preserve" x="-324.00006" y="-267.77344" font-family="Sans,Helvetica" fill="rgb(229,255,255)" font-size="14"/>
</g>
</g>
<g id="la203408926">
<path id="s203408926" d="M 400.00012,160.0 700.0,160.0 " fill="none" stroke-width="4.0" stroke="rgb(129,199,132)"/>
<g id="t203408926">
<text xml:space="preserve" x="550.00006" y="152.22655" font-family="Sans,Helvetica" fill="rgb(229,255,255)" font-size="14"/>
</g>
</g>
<g id="la18394879">
<path id="s18394879" d="M 850.0,260.0 850.0,610.0 20.000092,610.0 " fill="none" stroke-width="3.0" stroke="rgb(129,199,132)"/>
<g id="t18394879">
<text xml:space="preserve" x="614.0" y="628.7656" font-family="Sans,Helvetica" fill="rgb(229,255,255)" font-size="14"/>
</g>
</g>
<g id="la84829388">
<path id="s84829388" d="M 20.000092,610.0 79.999985,610.0 79.999985,940.0 " fill="none" stroke-width="4.0" stroke="rgb(129,199,132)"/>
<g id="t84829388">
<text xml:space="preserve" x="83.99998" y="737.2266" font-family="Sans,Helvetica" fill="rgb(229,255,255)" font-size="14"/>
</g>
</g>
<g id="la194986773">
<path id="s194986773" d="M -280.0,610.0 -370.0,610.0 -370.0,940.0 " fill="none" stroke-width="4.0" stroke="rgb(129,199,132)"/>
<g id="t194986773">
<text xml:space="preserve" x="-374.0" y="722.22656" font-family="Sans,Helvetica" fill="rgb(229,255,255)" font-size="14"/>
</g>
</g>
</svg>
